<?xml version="1.0" standalone="no"?>
<!DOCTYPE svg PUBLIC "-//W3C//DTD SVG 20010904//EN"
 "http://www.w3.org/TR/2001/REC-SVG-20010904/DTD/svg10.dtd">
<svg version="1.0" xmlns="http://www.w3.org/2000/svg"
 width="300.000000pt" height="300.000000pt" viewBox="0 0 300.000000 300.000000"
 preserveAspectRatio="xMidYMid meet">
<metadata>
Created by potrace 1.10, written by Peter Selinger 2001-2011
</metadata>
<g transform="translate(0.000000,300.000000) scale(0.050000,-0.050000)"
fill="#000000" stroke="none">
<path d="M2745 5942 c-46 -8 -89 -19 -94 -24 -5 -6 98 -90 229 -187 132 -97
289 -219 349 -272 60 -52 172 -134 248 -181 l139 -87 7 -594 c5 -423 14 -602
31 -619 23 -23 101 41 481 392 l86 80 17 210 c9 116 15 271 12 345 -2 77 5
135 16 135 36 0 -29 57 -145 126 -114 68 -561 446 -561 474 0 8 -36 38 -79 67
-49 33 -76 63 -69 81 9 22 -33 30 -216 39 -124 6 -257 15 -296 20 -38 5 -108
3 -155 -5z"/>
<path d="M2325 5544 l-185 -6 0 -224 c0 -123 -14 -352 -33 -509 l-33 -285
-162 -155 c-151 -144 -538 -444 -870 -675 -79 -55 -213 -158 -298 -228 -196
-163 -329 -261 -450 -331 l-96 -56 124 -112 c69 -62 157 -135 196 -161 40 -27
122 -94 182 -149 61 -55 160 -131 220 -170 105 -67 214 -158 527 -443 79 -72
227 -189 330 -260 300 -207 287 -192 296 -351 5 -76 2 -329 -7 -562 l-16 -423
70 -12 c39 -6 144 -12 235 -12 200 0 178 -66 203 610 26 696 30 655 -78 752
-50 45 -120 108 -157 141 -36 34 -135 107 -220 164 -221 149 -1183 943 -1183
977 0 26 54 71 280 234 105 75 227 167 273 204 46 38 134 104 197 148 153 107
582 456 673 547 40 40 113 105 162 143 l89 70 12 180 c6 99 4 243 -6 320 -10
77 -19 250 -22 384 -5 281 18 259 -253 250z"/>
<path d="M4423 4536 c8 -33 305 -313 524 -493 85 -71 152 -134 149 -142 -9
-22 -244 -216 -456 -377 -183 -139 -518 -414 -579 -475 -38 -37 161 -232 409
-401 88 -60 214 -154 280 -208 66 -55 181 -146 255 -202 130 -98 155 -127 117
-141 -9 -4 -57 -41 -105 -82 -107 -92 -450 -369 -529 -429 l-58 -44 90 -3
c556 -20 549 -23 930 311 132 115 251 210 265 210 77 0 8 99 -170 240 -618
491 -885 714 -885 737 0 7 61 60 135 118 114 88 352 278 723 575 41 33 105 86
142 117 l69 58 -250 239 c-137 132 -293 275 -347 319 l-98 79 -242 -5 c-133
-3 -272 2 -309 11 -53 13 -65 10 -60 -12z"/>
<path d="M3637 1512 c-7 -595 -9 -630 -47 -673 -41 -46 -288 -235 -469 -359
-57 -38 -186 -138 -287 -221 -101 -83 -206 -167 -234 -187 -49 -34 -40 -35
270 -22 l320 14 82 67 c46 37 89 62 96 54 7 -7 60 33 117 89 99 96 177 162
540 456 239 194 268 288 220 713 -14 128 -12 156 14 174 35 25 -70 134 -239
249 -49 33 -150 108 -222 167 -73 59 -138 107 -144 107 -6 0 -14 -283 -17
-628z"/>
</g>
</svg>
